<?xml version="1.0" encoding="utf-8"?>
<!-- Generator: Adobe Illustrator 25.2.3, SVG Export Plug-In . SVG Version: 6.00 Build 0)  -->
<svg version="1.1" id="Layer_1" xmlns="http://www.w3.org/2000/svg" xmlns:xlink="http://www.w3.org/1999/xlink" x="0px" y="0px"
	 viewBox="0 0 506.81 497.82" style="enable-background:new 0 0 506.81 497.82;" xml:space="preserve">
<path d="M437.51,28.8h-323.4c-20.26,0-36.75,16.49-36.75,36.75v147H55.31c-12.16,0-22.05,9.89-22.05,22.05v213.15
	c0,12.16,9.89,22.05,22.05,22.05h154.35c12.16,0,22.05-9.89,22.05-22.05v-44.1h22.05v44.1c0,12.16,9.89,22.05,22.05,22.05h176.4
	c12.16,0,22.05-9.89,22.05-22.05V366.9c0-12.16-9.89-22.05-22.05-22.05h-90.25l-9.8-29.4h85.35c20.26,0,36.75-16.49,36.75-36.75
	V65.55C474.26,45.28,457.78,28.8,437.51,28.8z M217.01,447.75c0,4.06-3.3,7.35-7.35,7.35H55.31c-4.05,0-7.35-3.29-7.35-7.35v-14.7
	h169.05V447.75z M217.01,418.35H47.96V264h169.05V418.35z M217.01,249.3H47.96v-14.7c0-4.06,3.3-7.35,7.35-7.35h154.35
	c4.05,0,7.35,3.29,7.35,7.35V249.3z M253.76,388.95h-22.05v-14.7h22.05V388.95z M255.12,359.55h-23.4v-44.1h104.95l9.8,29.4h-70.65
	C266.24,344.85,258.16,351.01,255.12,359.55z M283.16,455.1h-7.35c-4.05,0-7.35-3.29-7.35-7.35V366.9c0-4.06,3.3-7.35,7.35-7.35
	h7.35V455.1z M444.86,359.55h7.35c4.05,0,7.35,3.29,7.35,7.35v80.85c0,4.06-3.3,7.35-7.35,7.35h-7.35V359.55z M430.16,359.55v95.55
	h-132.3v-95.55H430.16z M459.56,278.7c0,12.16-9.89,22.05-22.05,22.05h-205.8V264h227.85V278.7z M459.56,249.3H231.71v-14.7
	c0-12.16-9.89-22.05-22.05-22.05H92.06v-147c0-12.16,9.89-22.05,22.05-22.05h323.4c12.16,0,22.05,9.89,22.05,22.05V249.3z
	 M189.77,177.95l88.2-88.2l10.39,10.39l-88.2,88.2L189.77,177.95z M277.97,177.95l88.2-88.2l10.39,10.39l-88.2,88.2L277.97,177.95z
	 M72.16,354.35l58.8-58.8l10.39,10.39l-58.8,58.8L72.16,354.35z M116.26,369.05l58.8-58.8l10.39,10.39l-58.8,58.8L116.26,369.05z
	 M314.71,420.5l44.1-44.1l10.39,10.39l-44.1,44.1L314.71,420.5z M358.81,420.5l44.1-44.1l10.39,10.39l-44.1,44.1L358.81,420.5z
	 M430.16,219.9h14.7v14.7h-14.7V219.9z M400.76,219.9h14.7v14.7h-14.7V219.9z M371.36,219.9h14.7v14.7h-14.7V219.9z"/>
</svg>
