<?xml version="1.0" encoding="utf-8"?>
<!-- Generator: Adobe Illustrator 25.2.3, SVG Export Plug-In . SVG Version: 6.00 Build 0)  -->
<svg version="1.1" id="Layer_1" xmlns="http://www.w3.org/2000/svg" xmlns:xlink="http://www.w3.org/1999/xlink" x="0px" y="0px"
	 viewBox="0 0 506.81 497.82" style="enable-background:new 0 0 506.81 497.82;" xml:space="preserve">
<path d="M177.97,350.32c16.96-12.01,28.1-31.75,28.1-54.08c0-36.54-29.74-66.27-66.27-66.27s-66.27,29.73-66.27,66.27
	c0,22.32,11.12,42.06,28.1,54.08c-43.9,15.73-75.43,57.63-75.43,106.86v18.93h227.21v-18.93
	C253.41,407.95,221.87,366.05,177.97,350.32z M92.47,296.24c0-26.1,21.23-47.34,47.34-47.34s47.34,21.23,47.34,47.34
	s-21.23,47.34-47.34,47.34S92.47,322.35,92.47,296.24z M45.13,457.18c0-52.2,42.47-94.67,94.67-94.67s94.67,42.47,94.67,94.67H45.13
	z M405.18,274.58c16.96-12.01,28.1-31.75,28.1-54.08c0-36.54-29.74-66.27-66.27-66.27s-66.27,29.73-66.27,66.27
	c0,22.32,11.12,42.06,28.1,54.08c-43.9,15.73-75.43,57.63-75.43,106.86v18.93h227.21v-18.93
	C480.62,332.21,449.08,290.32,405.18,274.58z M319.68,220.51c0-26.1,21.23-47.34,47.34-47.34s47.34,21.23,47.34,47.34
	s-21.23,47.34-47.34,47.34S319.68,246.61,319.68,220.51z M272.34,381.45c0-52.2,42.47-94.67,94.67-94.67s94.67,42.47,94.67,94.67
	H272.34z M172.12,163.71h43.42V21.7H26.2v142.01h94.67v51.25L172.12,163.71z M45.13,144.77V40.63H196.6v104.14h-32.32l-24.48,24.48
	v-24.48H45.13z M234.47,116.37h24.48l51.25,51.25v-51.25h170.41V21.7H234.47V116.37z M253.41,40.63h208.28v56.8H291.27v24.48
	l-24.48-24.48h-13.39V40.63z M272.34,59.57h18.93V78.5h-18.93V59.57z M310.21,59.57h18.93V78.5h-18.93V59.57z M348.08,59.57h18.93
	V78.5h-18.93V59.57z M385.95,59.57h18.93V78.5h-18.93V59.57z M423.81,59.57h18.93V78.5h-18.93V59.57z M64.07,59.57h94.67V78.5H64.07
	V59.57z M64.07,97.44h94.67v18.93H64.07V97.44z"/>
</svg>
