<?xml version="1.0" encoding="utf-8"?>
<!-- Generator: Adobe Illustrator 25.2.3, SVG Export Plug-In . SVG Version: 6.00 Build 0)  -->
<svg version="1.1" id="Layer_1" xmlns="http://www.w3.org/2000/svg" xmlns:xlink="http://www.w3.org/1999/xlink" x="0px" y="0px"
	 viewBox="0 0 506.81 497.82" style="enable-background:new 0 0 506.81 497.82;" xml:space="preserve">
<path d="M181.4,135.46c3.72,0.03,7.3,1.43,10.06,3.93c3.1,2.8,7.88,2.55,10.68-0.55c1.25-1.39,1.94-3.18,1.95-5.05v-66.4
	c0-4.18-3.39-7.56-7.56-7.56C112.99,60,45.4,127.86,45.57,211.4c0.12,56.89,32.14,108.9,82.89,134.62v55.51
	c-9.04,3.2-15.1,11.74-15.13,21.33c0.03,5.6,2.13,10.98,5.9,15.13c-3.76,4.14-5.87,9.53-5.9,15.13c0,12.53,10.16,22.69,22.69,22.69
	h121.01c12.53,0,22.69-10.16,22.69-22.69c-0.03-5.6-2.13-10.98-5.9-15.13c3.76-4.14,5.87-9.53,5.9-15.13
	c-0.03-9.59-6.08-18.13-15.13-21.33v-55.51c48.59-24.24,80.37-72.76,83.19-126.99c0.11-2.07-0.62-4.09-2.04-5.6
	c-1.44-1.51-3.44-2.36-5.52-2.34h-46.74c-4.17-0.24-7.74,2.95-7.98,7.12c-0.06,1,0.08,1.99,0.42,2.94c0.76,1.59,1.22,3.31,1.36,5.07
	c0,8.35-6.77,15.13-15.13,15.13c-8.35,0-15.13-6.77-15.13-15.13c0.02-1.73,0.35-3.45,0.98-5.07c1.39-3.94-0.69-8.26-4.63-9.64
	c-0.94-0.33-1.94-0.47-2.94-0.42h-46.36v-43.72c-0.01-4.18-3.4-7.56-7.58-7.55c-1.87,0-3.66,0.7-5.05,1.95
	c-6.18,5.62-15.75,5.16-21.37-1.02c-5.62-6.18-5.16-15.75,1.02-21.37C173.93,136.84,177.6,135.43,181.4,135.46z M136.02,415.3
	h121.01c4.18,0,7.56,3.39,7.56,7.56c0,4.18-3.39,7.56-7.56,7.56H136.02c-4.18,0-7.56-3.39-7.56-7.56
	C128.46,418.68,131.85,415.3,136.02,415.3z M173.84,286.73h-7.56c-4.18,0-7.56-3.39-7.56-7.56c0-4.18,3.39-7.56,7.56-7.56
	c4.18,0,7.56,3.39,7.56,7.56V286.73z M188.97,301.85h15.13v98.32h-15.13V301.85z M257.03,460.68H136.02c-4.18,0-7.56-3.39-7.56-7.56
	c0-4.18,3.39-7.56,7.56-7.56h121.01c4.18,0,7.56,3.39,7.56,7.56C264.6,457.29,261.21,460.68,257.03,460.68z M181.4,180.84
	c2.55,0.02,5.1-0.31,7.56-0.98v38.8c0,4.18,3.39,7.56,7.56,7.56h45.38c0,16.71,13.54,30.25,30.25,30.25
	c16.71,0,30.25-13.54,30.25-30.25h29.35c-5.22,47.23-34.77,88.28-77.9,108.23c-2.68,1.24-4.39,3.93-4.39,6.88v58.84h-30.25v-98.32
	h7.56c12.53,0,22.69-10.16,22.69-22.69c0-12.53-10.16-22.69-22.69-22.69c-12.53,0-22.69,10.16-22.69,22.69v7.56h-15.13v-7.56
	c0-12.53-10.16-22.69-22.69-22.69c-12.53,0-22.69,10.16-22.69,22.69c0,12.53,10.16,22.69,22.69,22.69h7.56v98.32h-30.25v-58.84
	c0.01-2.95-1.71-5.64-4.39-6.88c-68.24-31.57-97.97-112.48-66.4-180.72C93.96,108,138.65,77.69,188.97,74.96v46.14
	c-2.48-0.59-5.02-0.85-7.56-0.76c-16.71,0-30.25,13.54-30.25,30.25S164.69,180.84,181.4,180.84z M219.22,286.73v-7.56
	c0-4.18,3.39-7.56,7.56-7.56c4.18,0,7.56,3.39,7.56,7.56c0,4.18-3.39,7.56-7.56,7.56H219.22z"/>
<path d="M461.24,180.84c0-2.42,0-4.84,0-7.56c0-83.54-67.72-151.26-151.26-151.26c-4.18,0-7.56,3.39-7.56,7.56V83.5
	c-2.46-0.67-5.01-1-7.56-0.98c-16.71,0-30.25,13.54-30.25,30.25s13.54,30.25,30.25,30.25c2.55,0.02,5.1-0.31,7.56-0.98v38.8
	c0,4.18,3.39,7.56,7.56,7.56h45.38c0,16.71,13.54,30.25,30.25,30.25s30.25-13.54,30.25-30.25h37.82
	C457.7,188.05,460.89,184.86,461.24,180.84z M407.16,173.28c-4.17-0.24-7.74,2.95-7.98,7.12c-0.06,1,0.08,1.99,0.42,2.94
	c0.68,1.61,1.07,3.32,1.13,5.07c0,8.35-6.77,15.13-15.13,15.13s-15.13-6.77-15.13-15.13c0.02-1.73,0.35-3.45,0.98-5.07
	c1.39-3.94-0.69-8.26-4.63-9.64c-0.94-0.33-1.94-0.47-2.94-0.42h-46.36v-43.72c-0.01-4.18-3.4-7.56-7.58-7.55
	c-1.87,0-3.66,0.7-5.05,1.95c-6.27,5.53-15.82,4.93-21.35-1.34c-5.53-6.27-4.93-15.82,1.34-21.35c5.72-5.04,14.29-5.04,20.01,0
	c3.1,2.8,7.88,2.56,10.68-0.53c1.19-1.31,1.87-2.99,1.95-4.76V37.14c72.22,4.02,128.69,63.81,128.57,136.14H407.16z"/>
</svg>
